<svg xmlns="http://www.w3.org/2000/svg" xmlns:xlink="http://www.w3.org/1999/xlink" width="500" zoomAndPan="magnify" viewBox="0 0 375 374.999991" height="500" preserveAspectRatio="xMidYMid meet" version="1.0"><defs><g/></defs><g fill="#ff5757" fill-opacity="1"><g transform="translate(17.548064, 226.601646)"><g><path d="M 122.265625 -34.703125 L 122.265625 -136.515625 L 100.421875 -136.515625 L 100.421875 -156.046875 L 164.546875 -156.046875 L 164.546875 -136.515625 L 141.5625 -136.515625 L 141.5625 1.609375 L 116.96875 1.609375 L 42.96875 -131.6875 L 42.515625 -131.6875 L 42.515625 -19.53125 L 65.03125 -19.53125 L 65.03125 0 L 0.921875 0 L 0.921875 -19.53125 L 23.21875 -19.53125 L 23.21875 -136.515625 L 0.921875 -136.515625 L 0.921875 -156.046875 L 54.234375 -155.8125 L 121.796875 -34.703125 Z M 122.265625 -34.703125 "/></g></g></g><g fill="#ff5757" fill-opacity="1"><g transform="translate(182.772086, 226.601646)"><g><path d="M 9.875 -77.90625 C 9.875 -93.988281 13.09375 -108.117188 19.53125 -120.296875 C 25.96875 -132.484375 35.046875 -141.910156 46.765625 -148.578125 C 58.484375 -155.242188 72.082031 -158.578125 87.5625 -158.578125 C 99.507812 -158.578125 109.8125 -156.773438 118.46875 -153.171875 C 127.125 -149.566406 133.976562 -145.851562 139.03125 -142.03125 L 139.03125 -156.046875 L 159.265625 -156.046875 L 159.265625 -105.9375 L 139.03125 -105.9375 C 134.75 -115.4375 128.046875 -123.132812 118.921875 -129.03125 C 109.804688 -134.9375 99.734375 -137.890625 88.703125 -137.890625 C 78.441406 -137.890625 69.289062 -135.359375 61.25 -130.296875 C 53.207031 -125.242188 46.925781 -118.195312 42.40625 -109.15625 C 37.882812 -100.125 35.625 -89.9375 35.625 -78.59375 C 35.625 -67.40625 38 -57.210938 42.75 -48.015625 C 47.5 -38.828125 53.96875 -31.628906 62.15625 -26.421875 C 70.351562 -21.210938 79.507812 -18.609375 89.625 -18.609375 C 96.820312 -18.609375 104.0625 -20.21875 111.34375 -23.4375 C 118.625 -26.65625 125.132812 -31.632812 130.875 -38.375 C 136.625 -45.113281 140.722656 -53.460938 143.171875 -63.421875 L 163.625 -52.171875 C 159.03125 -35.003906 149.988281 -21.59375 136.5 -11.9375 C 123.019531 -2.289062 106.859375 2.53125 88.015625 2.53125 C 72.847656 2.53125 59.328125 -0.875 47.453125 -7.6875 C 35.578125 -14.507812 26.34375 -24.007812 19.75 -36.1875 C 13.164062 -48.375 9.875 -62.28125 9.875 -77.90625 Z M 9.875 -77.90625 "/></g></g></g></svg>