<svg xmlns="http://www.w3.org/2000/svg" xmlns:xlink="http://www.w3.org/1999/xlink" width="500" zoomAndPan="magnify" viewBox="0 0 375 299.999988" height="400" preserveAspectRatio="xMidYMid meet" version="1.0"><defs><g/></defs><g fill="#7f95e4" fill-opacity="1"><g transform="translate(23.953131, 187.628)"><g><path d="M 117.640625 -33.390625 L 117.640625 -131.359375 L 96.640625 -131.359375 L 96.640625 -150.15625 L 158.34375 -150.15625 L 158.34375 -131.359375 L 136.21875 -131.359375 L 136.21875 1.546875 L 112.5625 1.546875 L 41.359375 -126.71875 L 40.90625 -126.71875 L 40.90625 -18.796875 L 62.578125 -18.796875 L 62.578125 0 L 0.890625 0 L 0.890625 -18.796875 L 22.328125 -18.796875 L 22.328125 -131.359375 L 0.890625 -131.359375 L 0.890625 -150.15625 L 52.1875 -149.9375 L 117.203125 -33.390625 Z M 117.640625 -33.390625 "/></g></g></g><g fill="#7f95e4" fill-opacity="1"><g transform="translate(182.950266, 187.628)"><g><path d="M 9.515625 -74.96875 C 9.515625 -90.445312 12.609375 -104.046875 18.796875 -115.765625 C 24.984375 -127.484375 33.71875 -136.550781 45 -142.96875 C 56.28125 -149.382812 69.363281 -152.59375 84.25 -152.59375 C 95.75 -152.59375 105.664062 -150.859375 114 -147.390625 C 122.332031 -143.921875 128.929688 -140.347656 133.796875 -136.671875 L 133.796875 -150.15625 L 153.25 -150.15625 L 153.25 -101.953125 L 133.796875 -101.953125 C 129.660156 -111.085938 123.207031 -118.492188 114.4375 -124.171875 C 105.664062 -129.847656 95.972656 -132.6875 85.359375 -132.6875 C 75.484375 -132.6875 66.675781 -130.253906 58.9375 -125.390625 C 51.195312 -120.523438 45.148438 -113.742188 40.796875 -105.046875 C 36.453125 -96.347656 34.28125 -86.539062 34.28125 -75.625 C 34.28125 -64.863281 36.5625 -55.0625 41.125 -46.21875 C 45.695312 -37.375 51.925781 -30.441406 59.8125 -25.421875 C 67.707031 -20.410156 76.519531 -17.90625 86.25 -17.90625 C 93.175781 -17.90625 100.140625 -19.453125 107.140625 -22.546875 C 114.140625 -25.648438 120.40625 -30.441406 125.9375 -36.921875 C 131.46875 -43.410156 135.410156 -51.445312 137.765625 -61.03125 L 157.453125 -50.203125 C 153.023438 -33.691406 144.320312 -20.789062 131.34375 -11.5 C 118.375 -2.207031 102.828125 2.4375 84.703125 2.4375 C 70.097656 2.4375 57.082031 -0.84375 45.65625 -7.40625 C 34.238281 -13.96875 25.359375 -23.109375 19.015625 -34.828125 C 12.679688 -46.546875 9.515625 -59.925781 9.515625 -74.96875 Z M 9.515625 -74.96875 "/></g></g></g></svg>